<svg width="32" height="32" version="1.1" xmlns="http://www.w3.org/2000/svg" desc="Created with imagetracer.js version 1.2.6" ><path fill="rgb(0,0,0)" stroke="rgb(0,0,0)" stroke-width="1" opacity="1" d="M 2 2 L 30 2 L 30 14 L 22 14 L 22 10 L 26 10 L 26 6 L 18 6 L 18 26 L 22 26 L 22 22 L 26 22 L 26 30 L 6 30 L 6 22 L 10 22 L 10 26 L 14 26 L 14 6 L 6 6 L 6 10 L 10 10 L 10 14 L 2 14 L 2 2 Z " /><path fill="rgb(254,254,254)" stroke="rgb(254,254,254)" stroke-width="1" opacity="1" d="M 0 0 L 32 0 L 32 16 L 20 16 L 20 20 L 28 20 L 28 32 L 4 32 L 4 20 L 12 20 L 12 16 L 0 16 L 0 0 Z M 2 2 L 2 14 L 10 14 L 10 10 L 6 10 L 6 6 L 14 6 L 14 26 L 10 26 L 10 22 L 6 22 L 6 30 L 26 30 L 26 22 L 22 22 L 22 26 L 18 26 L 18 6 L 26 6 L 26 10 L 22 10 L 22 14 L 30 14 L 30 2 L 2 2 Z " /></svg>